<svg width="90" height="72" viewBox="0 0 90 72" fill="none" xmlns="http://www.w3.org/2000/svg">
<rect width="90" height="72" fill="white"/>
<path fill-rule="evenodd" clip-rule="evenodd" d="M1.83522 0.574564C2.10507 0.890644 4.82891 3.59035 7.88738 6.57391L13.4485 11.9987H19.1217H24.7948L29.3969 16.3744L33.9989 20.7502V36.006V51.2618L29.6098 55.4562L25.2204 59.6506H19.5064H13.7921L7.53093 65.7357L1.27013 71.8207L15.7486 71.9105L30.2271 72L38.5551 64.0284L46.8826 56.0565V35.9961V15.9356L38.559 7.96781L30.2354 0H15.7898C2.31729 0 1.37714 0.0387369 1.83522 0.574564ZM43.764 6.10665L50.1036 12.2133V22.562V32.9107H56.5455H62.9874V22.4547V11.9987H70.2384H77.4891L83.7446 5.99934L90 0H63.7124H37.4249L43.764 6.10665ZM0 35.9961V69.7566L6.44189 63.593L12.8838 57.4295V35.9961V14.5626L6.44189 8.39908L0 2.23553V35.9961ZM50.1036 48.1634V59.6451L44.6459 64.9026C41.6443 67.7943 38.7977 70.5722 38.3207 71.0761L37.4528 71.9921H63.7264H90L83.5656 65.8214L77.1312 59.6506H70.0591H62.9874V52.7942V45.9378H68.4501H73.9132L78.4708 41.5621C80.9778 39.1555 83.0288 37.0728 83.0288 36.934C83.0288 36.7952 75.6206 36.6817 66.5662 36.6817H50.1036V48.1634Z" fill="black"/>
</svg>
