<svg version="1.1" xmlns="http://www.w3.org/2000/svg" width="288" height="75">
<path d="M0 0 C9.25604136 0.39208468 16.0927599 1.75514399 22.72680664 8.46118164 C30.89358787 19.57427286 28.65435792 36.94294104 28.09277344 50.01708984 C28.06760147 50.85935623 28.0424295 51.70162262 28.01649475 52.56941223 C27.75205454 56.70409654 27.48324114 58.59627522 24.77832031 61.87036133 C23.87533203 62.61616455 22.97234375 63.36196777 22.04199219 64.13037109 C21.26879639 65.00612793 20.49560059 65.88188477 19.69897461 66.78417969 C14.56815734 72.18424534 10.97479424 74.77827309 3.40527344 75.10693359 C0.70486019 75.04090882 -1.95388775 74.92607334 -4.64550781 74.75537109 C-6.04052799 74.70507963 -7.43572533 74.65947532 -8.83105469 74.61865234 C-12.21133137 74.50168775 -15.58229699 74.33805799 -18.95800781 74.13037109 C-18.55533691 73.66421387 -18.15266602 73.19805664 -17.73779297 72.71777344 C-17.20460449 72.09854004 -16.67141602 71.47930664 -16.12207031 70.84130859 C-15.59564941 70.23077637 -15.06922852 69.62024414 -14.52685547 68.99121094 C-13.50745832 67.78208472 -12.510332 66.55369741 -11.54052734 65.30444336 C-9.31402209 62.44816033 -7.85999588 61.2437566 -4.19238281 60.78271484 C-1.08300781 60.69287109 -1.08300781 60.69287109 1.84667969 60.82177734 C6.94142374 59.7193694 10.15217402 57.49614384 13.04199219 53.13037109 C14.05849023 48.80068621 14.19668284 44.66262506 14.08496094 40.22436523 C14.04207145 38.19661866 14.08454879 36.18306965 14.13574219 34.15576172 C14.08444559 27.70842062 13.87048174 23.08302528 9.37402344 18.20849609 C6.65430996 15.96568628 5.313113 15.18171725 1.80371094 14.51708984 C0.78921875 14.61634766 -0.22527344 14.71560547 -1.27050781 14.81787109 C-6.61769397 14.79288424 -9.06392107 13.75552779 -12.78881836 10.14331055 C-14.93050283 7.86611663 -16.97241542 5.54571093 -18.95800781 3.13037109 C-14.58104218 -1.24659454 -5.86162439 0.00821374 0 0 Z " fill="#010101" transform="translate(19.9580078125,-0.13037109375)" data-index="0"></path>
<path d="M0 0 C-1.6002824 4.16073424 -4.12626691 7.7549956 -8 10 C-12.13698421 10.51712303 -15.80529056 10.2796473 -20 10 C-20 14.29 -20 18.58 -20 23 C-19.05640625 22.86078125 -18.1128125 22.7215625 -17.140625 22.578125 C-6.14162203 21.65049824 -6.14162203 21.65049824 -1.33203125 25.63671875 C1.71364912 28.55128781 4.42836118 31.66213732 7 35 C7 35.33 7 35.66 7 36 C2.18461474 36.17082977 -2.63098067 36.33095054 -7.44702148 36.48217773 C-9.07699596 36.53474725 -10.70688722 36.58998091 -12.33666992 36.64819336 C-23.62944853 37.04914104 -34.73190499 36.86538825 -46 36 C-40.33654262 29.25778884 -40.33654262 29.25778884 -38.48095703 27.83642578 C-35.69413958 25.56159149 -34.20623912 23.94443173 -33.42431641 20.36376953 C-33.18675813 17.27145981 -33.11736148 14.22623997 -33.125 11.125 C-33.104375 10.05507813 -33.08375 8.98515625 -33.0625 7.8828125 C-33.01556454 5.25442651 -32.99554347 2.62871784 -33 0 C-28.62196815 -0.16750929 -24.24375401 -0.32807935 -19.86523438 -0.48217773 C-18.37525558 -0.53560003 -16.88534391 -0.59092962 -15.39550781 -0.64819336 C-13.25600663 -0.73009836 -11.11635907 -0.80517709 -8.9765625 -0.87890625 C-7.04417725 -0.94960327 -7.04417725 -0.94960327 -5.07275391 -1.02172852 C-2 -1 -2 -1 0 0 Z " fill="#010101" transform="translate(83,38)" data-index="1" style="opacity: 1; stroke-width: 2px; visibility: visible;"></path>
<path d="M0 0 C17.49 0 34.98 0 53 0 C50.24327546 5.51344909 47.2984419 9.70488033 42 13 C36.72658235 14.08421778 31.3145194 13.5281915 26 13 C26.33 13.99 26.66 14.98 27 16 C27.02172852 17.99291992 27.02172852 17.99291992 26.87890625 20.23046875 C26.83056641 21.03291016 26.78222656 21.83535156 26.73242188 22.66210938 C26.67634766 23.49548828 26.62027344 24.32886719 26.5625 25.1875 C26.51029297 26.03248047 26.45808594 26.87746094 26.40429688 27.74804688 C26.27476311 29.83236299 26.13806823 31.91623182 26 34 C21.71 34 17.42 34 13 34 C13.00902344 32.56527344 13.01804687 31.13054688 13.02734375 29.65234375 C12.99919141 27.74736845 12.9691432 25.84242051 12.9375 23.9375 C12.94845703 22.99455078 12.95941406 22.05160156 12.97070312 21.08007812 C12.84307446 15.8473028 12.39037184 12.76094937 8.625 8.9609375 C7.44402801 7.94137755 6.23685893 6.95098754 5 6 C3.32294092 4.679762 1.65191491 3.35156675 0 2 C0 1.34 0 0.68 0 0 Z " fill="#010101" transform="translate(37,1)" data-index="2" style="opacity: 1; visibility: visible;"></path>
<path d="M0 0 C12.63683496 9.47762622 12.63683496 9.47762622 13.49807739 13.08792114 C13.7794636 15.70733306 13.87629085 18.27584306 13.91015625 20.91015625 C13.9315416 21.87344345 13.95292694 22.83673065 13.97496033 23.82920837 C14.0089898 25.86732159 14.02914009 27.90570736 14.03637695 29.9440918 C14.06224436 33.03198278 14.17855126 36.10789963 14.29882812 39.19335938 C14.60472032 55.42078399 14.60472032 55.42078399 8.67979431 61.85630798 C2.12160561 68 2.12160561 68 0 68 C0 45.56 0 23.12 0 0 Z " fill="#000000" transform="translate(0,4)" data-index="3"></path>
<path d="M0 0 C4.021875 -0.0928125 4.021875 -0.0928125 8.125 -0.1875 C8.95789551 -0.21481201 9.79079102 -0.24212402 10.64892578 -0.27026367 C15.50273718 -0.3241177 18.81697656 0.27277043 23 3 C25.34168764 6.51253146 25.49623677 7.86469356 25 12 C23.17680876 14.93012878 22.02957119 16.6282104 18.75 17.8125 C18.1725 17.874375 17.595 17.93625 17 18 C19.63886654 22.2026393 22.36440339 25.56638098 26 29 C22.27282399 29.34701294 18.71469501 29.52990606 15 29 C12.23048219 26.03265949 11.26845895 23.80537684 10 20 C9.67 22.97 9.34 25.94 9 29 C6.03 29 3.06 29 0 29 C0 19.43 0 9.86 0 0 Z M9 4 C9 7.63 9 11.26 9 15 C10.65 15 12.3 15 14 15 C16.30163882 11.54754176 16.34490322 10.05261287 16 6 C15.34 5.34 14.68 4.68 14 4 C12.35 4 10.7 4 9 4 Z " fill="#010101" transform="translate(182,45)" data-index="4" style="opacity: 1; visibility: visible; fill: rgb(51, 112, 255);"></path>
<path d="M0 0 C18.82797732 -0.62759924 18.82797732 -0.62759924 24 4 C26.78386265 7.23184055 27.91408143 10.30037739 28.4375 14.5625 C27.78019761 19.72701881 26.3122195 22.81580191 22.4375 26.3125 C18.52268725 29.02275498 15.88600814 29.2785649 11.125 29.625 C9.89007813 29.72039063 8.65515625 29.81578125 7.3828125 29.9140625 C4 30 4 30 0 29 C0 19.43 0 9.86 0 0 Z M8 4 C8 11.26 8 18.52 8 26 C14.2082383 25.0776376 14.2082383 25.0776376 18 21 C19.74756883 17.50486233 19.56210785 13.81339074 19 10 C17.65815394 7.14857712 16.50233586 6.12154562 14 4 C12.02 4 10.04 4 8 4 Z " fill="#020202" transform="translate(101,0)" data-index="5"></path>
<path d="M0 0 C2.56700831 1.07188698 3.92467526 2.10256023 6 4 C5.75 5.875 5.75 5.875 5 8 C2.9375 9.25 2.9375 9.25 1 10 C0.71125 9.360625 0.4225 8.72125 0.125 8.0625 C-0.82823451 5.84793921 -0.82823451 5.84793921 -3 5 C-4.37342831 4.9310528 -5.75002102 4.91532292 -7.125 4.9375 C-8.40375 4.958125 -9.6825 4.97875 -11 5 C-11 6.32 -11 7.64 -11 9 C-10.19175781 9.17015625 -9.38351562 9.3403125 -8.55078125 9.515625 C2.86126599 12.10364054 2.86126599 12.10364054 6 16 C7.13146455 19.88940939 7.38624541 22.03438646 5.875 25.8125 C3.17031607 28.96796458 0.99866092 29.79311458 -3.11328125 30.21875 C-9.65292096 30.48253379 -13.57509273 28.61660485 -19 25 C-18.25 23.0625 -18.25 23.0625 -17 21 C-14.875 20.25 -14.875 20.25 -13 20 C-12.690625 20.639375 -12.38125 21.27875 -12.0625 21.9375 C-8.90231425 25.09768575 -5.31666092 24.81900793 -1 25 C-1 23.35 -1 21.7 -1 20 C-1.80824219 19.82984375 -2.61648438 19.6596875 -3.44921875 19.484375 C-15.0907946 16.84430714 -15.0907946 16.84430714 -18 13 C-18.75906633 8.21788215 -18.67483804 6.19971207 -16.3125 2 C-11.10205126 -1.14593131 -5.92830471 -0.83947172 0 0 Z " fill="#010101" transform="translate(281,45)" data-index="6" style="opacity: 1; visibility: visible; fill: rgb(51, 112, 255);"></path>
<path d="M0 0 C1.62890625 1.10546875 1.62890625 1.10546875 3.87890625 3.10546875 C3.62890625 4.98046875 3.62890625 4.98046875 2.87890625 7.10546875 C0.81640625 8.35546875 0.81640625 8.35546875 -1.12109375 9.10546875 C-1.40984375 8.46609375 -1.69859375 7.82671875 -1.99609375 7.16796875 C-2.94932826 4.95340796 -2.94932826 4.95340796 -5.12109375 4.10546875 C-6.49452206 4.03652155 -7.87111477 4.02079167 -9.24609375 4.04296875 C-10.52484375 4.06359375 -11.80359375 4.08421875 -13.12109375 4.10546875 C-13.12109375 5.42546875 -13.12109375 6.74546875 -13.12109375 8.10546875 C-12.32445312 8.26402344 -11.5278125 8.42257813 -10.70703125 8.5859375 C0.79958614 11.11963306 0.79958614 11.11963306 4.87890625 16.10546875 C5.56640625 19.60546875 5.56640625 19.60546875 4.87890625 23.10546875 C2.33753466 26.2650118 0.73267966 27.82087761 -3.12109375 29.10546875 C-9.08644202 29.50315863 -12.86031026 28.99374204 -18.12109375 26.10546875 C-20.05859375 23.91796875 -20.05859375 23.91796875 -21.12109375 22.10546875 C-19.80859375 20.60546875 -19.80859375 20.60546875 -18.12109375 19.10546875 C-17.13109375 19.10546875 -16.14109375 19.10546875 -15.12109375 19.10546875 C-14.50234375 19.74484375 -13.88359375 20.38421875 -13.24609375 21.04296875 C-10.79869242 23.41838768 -9.47877066 23.84718591 -6.12109375 24.10546875 C-5.13109375 23.77546875 -4.14109375 23.44546875 -3.12109375 23.10546875 C-3.12109375 22.11546875 -3.12109375 21.12546875 -3.12109375 20.10546875 C-4.18070313 19.77933594 -5.2403125 19.45320313 -6.33203125 19.1171875 C-7.72022985 18.67634065 -9.10824112 18.23490357 -10.49609375 17.79296875 C-11.19476563 17.57962891 -11.8934375 17.36628906 -12.61328125 17.14648438 C-17.89453125 15.4453125 -17.89453125 15.4453125 -20.12109375 12.10546875 C-20.67445343 5.13313673 -20.67445343 5.13313673 -18.80859375 1.66796875 C-14.42752091 -2.38858018 -5.28689437 -2.2296479 0 0 Z " fill="#020202" transform="translate(255.12109375,45.89453125)" data-index="7" style="opacity: 1; visibility: visible; fill: rgb(51, 112, 255);"></path>
<path d="M0 0 C2.56700831 1.07188698 3.92467526 2.10256023 6 4 C5.75 5.875 5.75 5.875 5 8 C2.9375 9.25 2.9375 9.25 1 10 C0.896875 9.360625 0.79375 8.72125 0.6875 8.0625 C0.460625 7.381875 0.23375 6.70125 0 6 C-3.47325181 4.8422494 -6.36067448 4.93133348 -10 5 C-10.33 6.32 -10.66 7.64 -11 9 C-10.19175781 9.17015625 -9.38351563 9.3403125 -8.55078125 9.515625 C2.86126599 12.10364054 2.86126599 12.10364054 6 16 C7.13146455 19.88940939 7.38624541 22.03438646 5.875 25.8125 C3.18293849 28.95323843 1.03129871 29.74754414 -3.04296875 30.25390625 C-9.07820153 30.57592383 -12.81256886 29.01814175 -18 26 C-18 24.68 -18 23.36 -18 22 C-16.68 21.34 -15.36 20.68 -14 20 C-13.525625 20.639375 -13.05125 21.27875 -12.5625 21.9375 C-8.94579965 24.84850272 -5.52795106 24.80649782 -1 25 C-1 23.35 -1 21.7 -1 20 C-1.80824219 19.82984375 -2.61648437 19.6596875 -3.44921875 19.484375 C-15.0907946 16.84430714 -15.0907946 16.84430714 -18 13 C-18.75906633 8.21788215 -18.67483804 6.19971207 -16.3125 2 C-11.10205126 -1.14593131 -5.92830471 -0.83947172 0 0 Z " fill="#020202" transform="translate(217,0)" data-index="8"></path>
<path d="M0 0 C2.84625 -0.061875 5.6925 -0.12375 8.625 -0.1875 C9.51010254 -0.21481201 10.39520508 -0.24212402 11.30712891 -0.27026367 C16.28219813 -0.32233226 19.7215708 0.17623673 24 3 C26.32536063 6.48804095 26.33457898 7.90140754 26 12 C25.10895151 15.11866971 24.14627895 15.90010218 21.4375 17.75 C17.02131746 19.35588456 13.68043044 19.21274684 9 19 C9 22.3 9 25.6 9 29 C6.03 29 3.06 29 0 29 C0 19.43 0 9.86 0 0 Z M9 4 C9 7.63 9 11.26 9 15 C11.91652174 15.16681109 11.91652174 15.16681109 15 15 C17.37994368 13.05667668 17.37994368 13.05667668 17.25 9.5 C17.37994368 5.94332332 17.37994368 5.94332332 15 4 C11.91652174 3.83318891 11.91652174 3.83318891 9 4 Z " fill="#010101" transform="translate(153,45)" data-index="9" style="opacity: 1; visibility: visible; fill: rgb(51, 112, 255);"></path>
<path d="M0 0 C3.12771462 -0.4906219 5.89647475 -0.70581845 9 0 C11.28928569 2.38336593 12.66469366 4.99388321 14 8 C16.64752004 5.42215154 18.94432065 3.08351902 21 0 C24.125 -0.1875 24.125 -0.1875 27 0 C25.47987323 5.40489519 21.72614782 8.98492628 18 13 C18.48210937 13.73605469 18.96421875 14.47210938 19.4609375 15.23046875 C20.09257812 16.20628906 20.72421875 17.18210937 21.375 18.1875 C22.00148437 19.15042969 22.62796875 20.11335938 23.2734375 21.10546875 C24.81988312 23.69803936 25.97508075 26.16853116 27 29 C23.87228538 29.4906219 21.10352525 29.70581845 18 29 C15.71071431 26.61663407 14.33530634 24.00611679 13 21 C10.87961365 23.61514317 8.86908256 26.19637616 7 29 C3.375 29.1875 3.375 29.1875 0 29 C2.11304172 25.32998017 4.4623211 22.03969817 7.109375 18.74609375 C8.16539002 17.04842782 8.16539002 17.04842782 7.86328125 15.13671875 C6.71608232 12.29727162 5.13603408 9.92108543 3.4375 7.375 C0 2.21529175 0 2.21529175 0 0 Z " fill="#010101" transform="translate(123,45)" data-index="10" style="opacity: 1; visibility: visible; fill: rgb(51, 112, 255);"></path>
<path d="M0 0 C6.93 0 13.86 0 21 0 C21 1.65 21 3.3 21 5 C17.04 5 13.08 5 9 5 C9 7.64 9 10.28 9 13 C11.97 13 14.94 13 18 13 C18 14.32 18 15.64 18 17 C15.03 17 12.06 17 9 17 C9 19.64 9 22.28 9 25 C12.96 25 16.92 25 21 25 C21 26.32 21 27.64 21 29 C14.07 29 7.14 29 0 29 C0 19.43 0 9.86 0 0 Z " fill="#000000" transform="translate(211,45)" data-index="11" style="opacity: 1; visibility: visible; fill: rgb(51, 112, 255);"></path>
<path d="M0 0 C6.93 0 13.86 0 21 0 C21 1.65 21 3.3 21 5 C16.71 5 12.42 5 8 5 C8 7.64 8 10.28 8 13 C11.3 13 14.6 13 18 13 C18 14.32 18 15.64 18 17 C14.7 17 11.4 17 8 17 C8 19.64 8 22.28 8 25 C12.29 25 16.58 25 21 25 C21 26.32 21 27.64 21 29 C14.07 29 7.14 29 0 29 C0 19.43 0 9.86 0 0 Z " fill="#010101" transform="translate(101,45)" data-index="12" style="opacity: 1; visibility: visible; fill: rgb(51, 112, 255);"></path>
<path d="M0 0 C6.93 0 13.86 0 21 0 C21 1.65 21 3.3 21 5 C16.71 5 12.42 5 8 5 C8 7.64 8 10.28 8 13 C11.3 13 14.6 13 18 13 C18 14.32 18 15.64 18 17 C14.7 17 11.4 17 8 17 C8 19.64 8 22.28 8 25 C12.29 25 16.58 25 21 25 C21 26.32 21 27.64 21 29 C14.07 29 7.14 29 0 29 C0 19.43 0 9.86 0 0 Z " fill="#030303" transform="translate(133,0)" data-index="13" style="opacity: 1;"></path>
<path d="M0 0 C2.97 0 5.94 0 9 0 C11.31 6.6 13.62 13.2 16 20 C17.93297598 13.79317274 17.93297598 13.79317274 19.85913086 7.58422852 C20.10026611 6.81522217 20.34140137 6.04621582 20.58984375 5.25390625 C20.83597412 4.46314697 21.08210449 3.6723877 21.33569336 2.85766602 C22 1 22 1 23 0 C24.66617115 -0.04063832 26.33388095 -0.042721 28 0 C27.33519127 6.09754259 25.11689573 11.60206273 23 17.3125 C22.44699219 18.83327148 22.44699219 18.83327148 21.8828125 20.38476562 C19.1385086 27.8614914 19.1385086 27.8614914 18 29 C15.32941149 29.14115161 12.67567762 29.04247107 10 29 C8.32517725 24.73232002 6.66154501 20.46036507 5 16.1875 C4.52304688 14.97255859 4.04609375 13.75761719 3.5546875 12.50585938 C3.10351562 11.34248047 2.65234375 10.17910156 2.1875 8.98046875 C1.76855469 7.90692139 1.34960938 6.83337402 0.91796875 5.72729492 C0 3 0 3 0 0 Z " fill="#030303" transform="translate(155,0)" data-index="14" style="opacity: 1;"></path>
<path d="M0 0 C2.64 0 5.28 0 8 0 C8 9.57 8 19.14 8 29 C5.36 29 2.72 29 0 29 C0 19.43 0 9.86 0 0 Z " fill="#020202" transform="translate(186,0)" data-index="15"></path>
<path d="" fill="#FFFFFF" transform="translate(0,0)" data-index="16"></path>
<path d="" fill="#FFFFFF" transform="translate(0,0)" data-index="17"></path>
<path d="" fill="#FFFFFF" transform="translate(0,0)" data-index="18"></path>
<path d="" fill="#FFFFFF" transform="translate(0,0)" data-index="19"></path>
<path d="" fill="#FFFFFF" transform="translate(0,0)" data-index="20"></path>
<path d="" fill="#00FFFF" transform="translate(0,0)" data-index="21"></path>
<path d="" fill="#FFFFFF" transform="translate(0,0)" data-index="22"></path>
<path d="" fill="#FFFFFF" transform="translate(0,0)" data-index="23"></path>
<path d="" fill="#FFFFFF" transform="translate(0,0)" data-index="24"></path>
<path d="" fill="#FFFFFF" transform="translate(0,0)" data-index="25"></path>
<path d="" fill="#FFFFFF" transform="translate(0,0)" data-index="26"></path>
<path d="" fill="#FFFFFF" transform="translate(0,0)" data-index="27"></path>
<path d="" fill="#FFFFFF" transform="translate(0,0)" data-index="28"></path>
<path d="" fill="#FFFFFF" transform="translate(0,0)" data-index="29"></path>
<path d="" fill="#FFFFFF" transform="translate(0,0)" data-index="30"></path>
<path d="" fill="#FFFFFF" transform="translate(0,0)" data-index="31"></path>
<path d="" fill="#FFFFFF" transform="translate(0,0)" data-index="32"></path>
<path d="" fill="#FFFFFF" transform="translate(0,0)" data-index="33"></path>
<path d="" fill="#FFFFFF" transform="translate(0,0)" data-index="34"></path>
<path d="" fill="#FFFFFF" transform="translate(0,0)" data-index="35"></path>
<path d="" fill="#FFFFFF" transform="translate(0,0)" data-index="36"></path>
<path d="" fill="#FFFFFF" transform="translate(0,0)" data-index="37"></path>
<path d="" fill="#FFFFFF" transform="translate(0,0)" data-index="38"></path>
<path d="" fill="#FFFFFF" transform="translate(0,0)" data-index="39"></path>
<path d="" fill="#FFFFFF" transform="translate(0,0)" data-index="40"></path>
<path d="" fill="#FFFFFF" transform="translate(0,0)" data-index="41"></path>
<path d="" fill="#FFFFFF" transform="translate(0,0)" data-index="42"></path>
<path d="" fill="#FFFFFF" transform="translate(0,0)" data-index="43"></path>
<path d="" fill="#FFFFFF" transform="translate(0,0)" data-index="44"></path>
<path d="" fill="#FFFFFF" transform="translate(0,0)" data-index="45"></path>
<path d="" fill="#FFFFFF" transform="translate(0,0)" data-index="46"></path>
<path d="" fill="#FFFFFF" transform="translate(0,0)" data-index="47"></path>
<path d="" fill="#FFFFFF" transform="translate(0,0)" data-index="48"></path>
<path d="" fill="#FFFFFF" transform="translate(0,0)" data-index="49"></path>
<path d="" fill="#FFFFFF" transform="translate(0,0)" data-index="50"></path>
<path d="" fill="#FFFFFF" transform="translate(0,0)" data-index="51"></path>
<path d="" fill="#FFFFFF" transform="translate(0,0)" data-index="52"></path>
<path d="" fill="#FFFFFF" transform="translate(0,0)" data-index="53"></path>
<path d="" fill="#FFFFFF" transform="translate(0,0)" data-index="54"></path>
<path d="" fill="#FFFFFF" transform="translate(0,0)" data-index="55"></path>
<path d="" fill="#FFFFFF" transform="translate(0,0)" data-index="56"></path>
<path d="" fill="#FFFFFF" transform="translate(0,0)" data-index="57"></path>
<path d="" fill="#FFFFFF" transform="translate(0,0)" data-index="58"></path>
<path d="" fill="#FFFFFF" transform="translate(0,0)" data-index="59"></path>
<path d="" fill="#FFFFFF" transform="translate(0,0)" data-index="60"></path>
<path d="" fill="#FFFFFF" transform="translate(0,0)" data-index="61"></path>
</svg>